<svg xmlns="http://www.w3.org/2000/svg" version="1.1" xmlns:xlink="http://www.w3.org/1999/xlink" xmlns:svgjs="http://svgjs.com/svgjs" width="1440" height="560" preserveAspectRatio="none" viewBox="0 0 1440 560"><g mask="url(&quot;#SvgjsMask1002&quot;)" fill="none"><rect width="1440" height="560" x="0" y="0" fill="url(#SvgjsLinearGradient1003)"></rect><path d="M1440 0L1410.52 0L1440 70.01z" fill="rgba(255, 255, 255, .1)"></path><path d="M1410.52 0L1440 70.01L1440 311.21L1070.29 0z" fill="rgba(255, 255, 255, .075)"></path><path d="M1070.29 0L1440 311.21L1440 319.40999999999997L419.91999999999996 0z" fill="rgba(255, 255, 255, .05)"></path><path d="M419.91999999999996 0L1440 319.40999999999997L1440 479.15999999999997L359.15 0z" fill="rgba(255, 255, 255, .025)"></path><path d="M0 560L592.02 560L0 329.43z" fill="rgba(0, 0, 0, .1)"></path><path d="M0 329.43L592.02 560L983.49 560L0 229.87z" fill="rgba(0, 0, 0, .075)"></path><path d="M0 229.87L983.49 560L1079.83 560L0 117.75z" fill="rgba(0, 0, 0, .05)"></path><path d="M0 117.75L1079.83 560L1259.86 560L0 34.41z" fill="rgba(0, 0, 0, .025)"></path></g><defs><mask id="SvgjsMask1002"><rect width="1440" height="560" fill="#ffffff"></rect></mask><linearGradient x1="15.28%" y1="-39.29%" x2="84.72%" y2="139.29%" gradientUnits="userSpaceOnUse" id="SvgjsLinearGradient1003"><stop stop-color="#0e2a47" offset="0"></stop><stop stop-color="rgba(0, 69, 158, 1)" offset="1"></stop></linearGradient></defs></svg>